<svg width="56" height="72" viewBox="0 0 56 72" fill="none" xmlns="http://www.w3.org/2000/svg">
<path fill-rule="evenodd" clip-rule="evenodd" d="M55.5 27.4909C55.5 12.3081 43.1878 0 28 0C12.8122 0 0.5 12.3081 0.5 27.4909C0.5 30.9054 1.12269 34.1744 2.26073 37.1908C7.38403 54.2902 28.1445 72 28.1445 72C28.1445 72 52.5397 51.1897 54.9668 32.905C55.3166 31.1546 55.5 29.3442 55.5 27.4909ZM28 17.0187C33.7858 17.0187 38.4762 21.7075 38.4762 27.4914C38.4762 33.2754 33.7858 37.9641 28 37.9641C22.2142 37.9641 17.5238 33.2754 17.5238 27.4914C17.5238 21.7075 22.2142 17.0187 28 17.0187Z" fill="#59D472"/>
</svg>
