<svg width="55" height="72" viewBox="0 0 55 72" fill="none" xmlns="http://www.w3.org/2000/svg">
<mask id="path-1-inside-1_943_4128" fill="white">
<path d="M27.5 0C42.6878 0 55 12.3084 55 27.4912C55 29.3444 54.8165 31.1549 54.4668 32.9053C52.0404 51.1825 27.6641 71.9833 27.6445 72C27.6445 72 6.88404 54.2899 1.76074 37.1904C0.622802 34.1742 3.68397e-05 30.9054 0 27.4912C0 12.3084 12.3122 1.28809e-07 27.5 0ZM27.5 17.0186C21.7142 17.0186 17.0234 21.7073 17.0234 27.4912C17.0236 33.275 21.7143 37.9639 27.5 37.9639C33.2857 37.9639 37.9764 33.275 37.9766 27.4912C37.9766 21.7073 33.2858 17.0186 27.5 17.0186Z"/>
</mask>
<path d="M27.5 0C42.6878 0 55 12.3084 55 27.4912C55 29.3444 54.8165 31.1549 54.4668 32.9053C52.0404 51.1825 27.6641 71.9833 27.6445 72C27.6445 72 6.88404 54.2899 1.76074 37.1904C0.622802 34.1742 3.68397e-05 30.9054 0 27.4912C0 12.3084 12.3122 1.28809e-07 27.5 0ZM27.5 17.0186C21.7142 17.0186 17.0234 21.7073 17.0234 27.4912C17.0236 33.275 21.7143 37.9639 27.5 37.9639C33.2857 37.9639 37.9764 33.275 37.9766 27.4912C37.9766 21.7073 33.2858 17.0186 27.5 17.0186Z" fill="#028484"/>
<path d="M27.5 0V-1V0ZM55 27.4912L56 27.4912V27.4912H55ZM54.4668 32.9053L53.4862 32.7094L53.4798 32.7413L53.4755 32.7737L54.4668 32.9053ZM27.6445 72L26.9955 72.7608L27.6446 73.3145L28.2936 72.7607L27.6445 72ZM1.76074 37.1904L2.71867 36.9034L2.70867 36.87L2.69637 36.8374L1.76074 37.1904ZM0 27.4912H-1V27.4912L0 27.4912ZM17.0234 27.4912H16.0234V27.4912L17.0234 27.4912ZM37.9766 27.4912L38.9766 27.4912V27.4912H37.9766ZM27.5 0V1C42.1358 1 54 12.861 54 27.4912H55H56C56 11.7558 43.2398 -1 27.5 -1V0ZM55 27.4912L54 27.4912C54 29.2782 53.8231 31.0232 53.4862 32.7094L54.4668 32.9053L55.4474 33.1012C55.8099 31.2867 56 29.4105 56 27.4912L55 27.4912ZM54.4668 32.9053L53.4755 32.7737C52.3037 41.6005 45.781 51.1775 39.393 58.6506C33.0416 66.0808 26.9868 71.2467 26.9955 71.2393L27.6445 72L28.2936 72.7607C28.3218 72.7366 34.465 67.4937 40.9132 59.9501C47.3249 52.4494 54.2035 42.4873 55.4581 33.0369L54.4668 32.9053ZM27.6445 72C28.2935 71.2392 28.2936 71.2393 28.2936 71.2392C28.2934 71.2391 28.2933 71.2391 28.2931 71.2389C28.2927 71.2385 28.2919 71.2378 28.2908 71.2369C28.2886 71.235 28.2852 71.2321 28.2806 71.2281C28.2713 71.2202 28.2571 71.208 28.2381 71.1916C28.2002 71.1588 28.1431 71.1093 28.0679 71.0437C27.9177 70.9125 27.6953 70.7167 27.4098 70.4609C26.8388 69.9491 26.0151 69.1973 25.0099 68.2411C22.9986 66.3279 20.264 63.6002 17.3716 60.3435C11.5619 53.802 5.21494 45.2349 2.71867 36.9034L1.76074 37.1904L0.802815 37.4774C3.42984 46.2454 10.0247 55.0831 15.8762 61.6716C18.8143 64.9798 21.59 67.7483 23.6314 69.6902C24.6525 70.6615 25.4908 71.4268 26.0751 71.9504C26.3673 72.2122 26.596 72.4136 26.7523 72.5501C26.8305 72.6184 26.8906 72.6705 26.9315 72.7058C26.952 72.7234 26.9676 72.7369 26.9783 72.7461C26.9837 72.7507 26.9878 72.7542 26.9907 72.7566C26.9921 72.7579 26.9932 72.7588 26.9941 72.7595C26.9945 72.7599 26.9948 72.7602 26.995 72.7604C26.9953 72.7606 26.9955 72.7608 27.6445 72ZM1.76074 37.1904L2.69637 36.8374C1.60033 33.9323 1.00004 30.783 1 27.4912L0 27.4912L-1 27.4912C-0.999962 31.0279 -0.354724 34.4162 0.825115 37.5434L1.76074 37.1904ZM0 27.4912H1C1 12.861 12.8642 1 27.5 1V0V-1C11.7602 -1 -1 11.7558 -1 27.4912H0ZM27.5 17.0186V16.0186C21.1622 16.0186 16.0234 21.1546 16.0234 27.4912H17.0234H18.0234C18.0234 22.2599 22.2661 18.0186 27.5 18.0186V17.0186ZM17.0234 27.4912L16.0234 27.4912C16.0236 33.8276 21.1623 38.9639 27.5 38.9639V37.9639V36.9639C22.2662 36.9639 18.0236 32.7224 18.0234 27.4912L17.0234 27.4912ZM27.5 37.9639V38.9639C33.8377 38.9639 38.9764 33.8276 38.9766 27.4912L37.9766 27.4912L36.9766 27.4912C36.9764 32.7224 32.7338 36.9639 27.5 36.9639V37.9639ZM37.9766 27.4912H38.9766C38.9766 21.1546 33.8378 16.0186 27.5 16.0186V17.0186V18.0186C32.7339 18.0186 36.9766 22.2599 36.9766 27.4912H37.9766Z" fill="#69D16B" mask="url(#path-1-inside-1_943_4128)"/>
</svg>
