<svg width="36" height="48" viewBox="0 0 36 48" fill="none" xmlns="http://www.w3.org/2000/svg">
<mask id="path-1-inside-1_1077_75171" fill="white">
<path fill-rule="evenodd" clip-rule="evenodd" d="M36 18.3273C36 8.2054 27.9411 0 18 0C8.05888 0 0 8.2054 0 18.3273C0 20.6036 0.407577 22.7829 1.15248 24.7939C4.50591 36.1935 18.0946 48 18.0946 48C18.0946 48 34.0623 34.1265 35.651 21.9367C35.8799 20.7697 36 19.5628 36 18.3273ZM18 11.3455C21.7871 11.3455 24.8571 14.4713 24.8571 18.3273C24.8571 22.1832 21.7871 25.3091 18 25.3091C14.2129 25.3091 11.1429 22.1832 11.1429 18.3273C11.1429 14.4713 14.2129 11.3455 18 11.3455Z"/>
</mask>
<path fill-rule="evenodd" clip-rule="evenodd" d="M36 18.3273C36 8.2054 27.9411 0 18 0C8.05888 0 0 8.2054 0 18.3273C0 20.6036 0.407577 22.7829 1.15248 24.7939C4.50591 36.1935 18.0946 48 18.0946 48C18.0946 48 34.0623 34.1265 35.651 21.9367C35.8799 20.7697 36 19.5628 36 18.3273ZM18 11.3455C21.7871 11.3455 24.8571 14.4713 24.8571 18.3273C24.8571 22.1832 21.7871 25.3091 18 25.3091C14.2129 25.3091 11.1429 22.1832 11.1429 18.3273C11.1429 14.4713 14.2129 11.3455 18 11.3455Z" fill="#76FB91"/>
<path d="M1.15248 24.7939L2.11183 24.5116L2.10214 24.4787L2.09021 24.4465L1.15248 24.7939ZM18.0946 48L17.4387 48.7549L18.0946 49.3247L18.7505 48.7549L18.0946 48ZM35.651 21.9367L34.6697 21.7442L34.6636 21.7756L34.6594 21.8074L35.651 21.9367ZM18 1C27.3719 1 35 8.74062 35 18.3273H37C37 7.67018 28.5103 -1 18 -1V1ZM1 18.3273C1 8.74062 8.62807 1 18 1V-1C7.48968 -1 -1 7.67018 -1 18.3273H1ZM2.09021 24.4465C1.38596 22.5453 1 20.4835 1 18.3273H-1C-1 20.7237 -0.570801 23.0206 0.214749 25.1412L2.09021 24.4465ZM18.0946 48C18.7505 47.2451 18.7505 47.2452 18.7506 47.2452C18.7505 47.2452 18.7505 47.2451 18.7504 47.245C18.7501 47.2448 18.7497 47.2445 18.749 47.2439C18.7477 47.2428 18.7456 47.2409 18.7427 47.2384C18.7369 47.2333 18.7278 47.2254 18.7157 47.2147C18.6913 47.1932 18.6544 47.1607 18.6058 47.1174C18.5085 47.0309 18.364 46.9013 18.1783 46.7318C17.8067 46.3927 17.2701 45.8938 16.6148 45.2589C15.3035 43.9885 13.5204 42.177 11.6348 40.0146C7.83971 35.6624 3.72505 29.9956 2.11183 24.5116L0.193128 25.0761C1.93334 30.9917 6.28974 36.928 10.1274 41.329C12.0581 43.5432 13.8818 45.3958 15.2231 46.6953C15.8942 47.3454 16.4454 47.858 16.83 48.209C17.0224 48.3846 17.1732 48.5199 17.2765 48.6118C17.3282 48.6578 17.3681 48.6929 17.3953 48.7169C17.409 48.7289 17.4195 48.7381 17.4267 48.7444C17.4304 48.7476 17.4332 48.7501 17.4352 48.7518C17.4362 48.7527 17.437 48.7534 17.4376 48.7539C17.4379 48.7541 17.4382 48.7544 17.4383 48.7545C17.4385 48.7547 17.4387 48.7549 18.0946 48ZM34.6594 21.8074C33.9051 27.595 29.6889 33.9197 25.5111 38.8966C23.4419 41.3616 21.4197 43.4526 19.9145 44.9275C19.1624 45.6645 18.5405 46.2464 18.108 46.643C17.8918 46.8412 17.7229 46.9931 17.6089 47.0947C17.5519 47.1455 17.5086 47.1838 17.4799 47.209C17.4656 47.2216 17.4549 47.231 17.448 47.237C17.4445 47.24 17.442 47.2422 17.4405 47.2436C17.4397 47.2443 17.4392 47.2447 17.4389 47.245C17.4387 47.2451 17.4387 47.2452 17.4386 47.2452C17.4386 47.2452 17.4387 47.2451 18.0946 48C18.7505 48.7549 18.7507 48.7547 18.7509 48.7545C18.7511 48.7543 18.7514 48.754 18.7518 48.7537C18.7524 48.7532 18.7534 48.7524 18.7545 48.7513C18.7568 48.7493 18.7601 48.7465 18.7643 48.7428C18.7728 48.7354 18.785 48.7246 18.801 48.7106C18.8328 48.6826 18.8794 48.6415 18.9397 48.5877C19.0603 48.4802 19.2361 48.3221 19.4596 48.1171C19.9065 47.7074 20.5446 47.1102 21.3142 46.3561C22.8526 44.8487 24.9217 42.7095 27.043 40.1824C31.2463 35.1751 35.8082 28.4681 36.6426 22.0659L34.6594 21.8074ZM35 18.3273C35 19.4978 34.8862 20.6403 34.6697 21.7442L36.6323 22.1292C36.8736 20.8991 37 19.6277 37 18.3273H35ZM25.8571 18.3273C25.8571 13.9361 22.3563 10.3455 18 10.3455V12.3455C21.2179 12.3455 23.8571 15.0065 23.8571 18.3273H25.8571ZM18 26.3091C22.3563 26.3091 25.8571 22.7184 25.8571 18.3273H23.8571C23.8571 21.648 21.2179 24.3091 18 24.3091V26.3091ZM10.1429 18.3273C10.1429 22.7184 13.6437 26.3091 18 26.3091V24.3091C14.7821 24.3091 12.1429 21.648 12.1429 18.3273H10.1429ZM18 10.3455C13.6437 10.3455 10.1429 13.9361 10.1429 18.3273H12.1429C12.1429 15.0065 14.7821 12.3455 18 12.3455V10.3455Z" fill="#39B352" mask="url(#path-1-inside-1_1077_75171)"/>
</svg>
