<svg width="28" height="36" viewBox="0 0 28 36" fill="none" xmlns="http://www.w3.org/2000/svg">
<mask id="path-1-inside-1_1077_75173" fill="white">
<path fill-rule="evenodd" clip-rule="evenodd" d="M28 13.7455C28 6.15405 21.732 0 14 0C6.26801 0 0 6.15405 0 13.7455C0 15.4527 0.317004 17.0872 0.896373 18.5954C3.5046 27.1451 14.0736 36 14.0736 36C14.0736 36 26.4929 25.5948 27.7286 16.4525C27.9066 15.5773 28 14.6721 28 13.7455ZM14 8.50909C16.9455 8.50909 19.3333 10.8535 19.3333 13.7455C19.3333 16.6374 16.9455 18.9818 14 18.9818C11.0545 18.9818 8.66667 16.6374 8.66667 13.7455C8.66667 10.8535 11.0545 8.50909 14 8.50909Z"/>
</mask>
<path fill-rule="evenodd" clip-rule="evenodd" d="M28 13.7455C28 6.15405 21.732 0 14 0C6.26801 0 0 6.15405 0 13.7455C0 15.4527 0.317004 17.0872 0.896373 18.5954C3.5046 27.1451 14.0736 36 14.0736 36C14.0736 36 26.4929 25.5948 27.7286 16.4525C27.9066 15.5773 28 14.6721 28 13.7455ZM14 8.50909C16.9455 8.50909 19.3333 10.8535 19.3333 13.7455C19.3333 16.6374 16.9455 18.9818 14 18.9818C11.0545 18.9818 8.66667 16.6374 8.66667 13.7455C8.66667 10.8535 11.0545 8.50909 14 8.50909Z" fill="white"/>
<path d="M0.896373 18.5954L1.85286 18.3036L1.84254 18.2698L1.82986 18.2368L0.896373 18.5954ZM14.0736 36L13.4314 36.7665L14.0736 37.3046L14.7158 36.7665L14.0736 36ZM27.7286 16.4525L26.7486 16.2532L26.742 16.2857L26.7376 16.3186L27.7286 16.4525ZM14 1C21.1971 1 27 6.72355 27 13.7455H29C29 5.58455 22.2669 -1 14 -1V1ZM1 13.7455C1 6.72355 6.80292 1 14 1V-1C5.73311 -1 -1 5.58455 -1 13.7455H1ZM1.82986 18.2368C1.29368 16.841 1 15.3279 1 13.7455H-1C-1 15.5774 -0.659671 17.3334 -0.0371181 18.954L1.82986 18.2368ZM14.0736 36C14.7158 35.2335 14.7159 35.2336 14.7159 35.2336C14.7159 35.2336 14.7159 35.2336 14.7158 35.2335C14.7157 35.2334 14.7154 35.2331 14.7149 35.2327C14.714 35.232 14.7124 35.2307 14.7102 35.2288C14.7059 35.2251 14.699 35.2193 14.6897 35.2115C14.6711 35.1957 14.6428 35.1716 14.6053 35.1394C14.5303 35.0751 14.4187 34.9786 14.275 34.8521C13.9875 34.5992 13.5719 34.2265 13.0641 33.7521C12.0477 32.8026 10.6658 31.4488 9.20476 29.8331C6.25697 26.5733 3.0897 22.358 1.85286 18.3036L-0.0601094 18.8872C1.31127 23.3825 4.7326 27.8695 7.72134 31.1746C9.22861 32.8414 10.6519 34.2356 11.6987 35.2136C12.2225 35.7029 12.6529 36.0888 12.9537 36.3535C13.1041 36.4859 13.2221 36.5879 13.3032 36.6575C13.3437 36.6923 13.3751 36.719 13.3966 36.7372C13.4074 36.7464 13.4157 36.7534 13.4215 36.7583C13.4245 36.7607 13.4267 36.7626 13.4284 36.764C13.4292 36.7647 13.4298 36.7653 13.4303 36.7657C13.4306 36.7659 13.4308 36.7661 13.431 36.7662C13.4312 36.7664 13.4314 36.7665 14.0736 36ZM26.7376 16.3186C26.1625 20.5734 22.932 25.2663 19.6835 28.998C18.0805 30.8394 16.5134 32.402 15.3466 33.5045C14.7637 34.0552 14.282 34.4899 13.9473 34.7859C13.7799 34.9338 13.6494 35.047 13.5615 35.1225C13.5176 35.1603 13.4843 35.1887 13.4623 35.2073C13.4514 35.2166 13.4432 35.2235 13.438 35.2278C13.4354 35.23 13.4336 35.2316 13.4325 35.2325C13.4319 35.233 13.4315 35.2333 13.4313 35.2335C13.4313 35.2336 13.4313 35.2336 13.4312 35.2336C13.4313 35.2336 13.4314 35.2335 14.0736 36C14.7158 36.7665 14.716 36.7664 14.7162 36.7662C14.7164 36.766 14.7166 36.7658 14.7169 36.7656C14.7175 36.7651 14.7183 36.7645 14.7192 36.7637C14.7211 36.7621 14.7237 36.7598 14.7271 36.757C14.7339 36.7513 14.7436 36.7431 14.7561 36.7324C14.7813 36.7111 14.8179 36.6799 14.8652 36.6393C14.9598 36.558 15.0973 36.4387 15.272 36.2842C15.6213 35.9754 16.1195 35.5258 16.7202 34.9582C17.9206 33.824 19.5356 32.214 21.1919 30.3112C24.4619 26.5548 28.059 21.474 28.7196 16.5864L26.7376 16.3186ZM27 13.7455C27 14.6047 26.9134 15.4431 26.7486 16.2532L28.7085 16.6518C28.8998 15.7114 29 14.7394 29 13.7455H27ZM20.3333 13.7455C20.3333 10.284 17.4804 7.50909 14 7.50909V9.50909C16.4106 9.50909 18.3333 11.423 18.3333 13.7455H20.3333ZM14 19.9818C17.4804 19.9818 20.3333 17.2069 20.3333 13.7455H18.3333C18.3333 16.0679 16.4106 17.9818 14 17.9818V19.9818ZM7.66667 13.7455C7.66667 17.2069 10.5196 19.9818 14 19.9818V17.9818C11.5894 17.9818 9.66667 16.0679 9.66667 13.7455H7.66667ZM14 7.50909C10.5196 7.50909 7.66667 10.284 7.66667 13.7455H9.66667C9.66667 11.423 11.5894 9.50909 14 9.50909V7.50909Z" fill="#7E807E" mask="url(#path-1-inside-1_1077_75173)"/>
</svg>
