<svg width="42" height="55" viewBox="0 0 42 55" fill="none" xmlns="http://www.w3.org/2000/svg">
<mask id="path-1-inside-1_943_4124" fill="white">
<path d="M21 0C32.598 0 42 9.40202 42 21C42 22.4157 41.8598 23.7986 41.5928 25.1357C39.7393 39.1032 21.1104 55 21.1104 55C21.1104 55 5.25706 41.4713 1.34473 28.4092C0.475753 26.1051 0 23.6081 0 21C0 9.40202 9.40202 0 21 0ZM21 13C16.5817 13 13 16.5817 13 21C13 25.4183 16.5817 29 21 29C25.4183 29 29 25.4183 29 21C29 16.5817 25.4183 13 21 13Z"/>
</mask>
<path d="M21 0C32.598 0 42 9.40202 42 21C42 22.4157 41.8598 23.7986 41.5928 25.1357C39.7393 39.1032 21.1104 55 21.1104 55C21.1104 55 5.25706 41.4713 1.34473 28.4092C0.475753 26.1051 0 23.6081 0 21C0 9.40202 9.40202 0 21 0ZM21 13C16.5817 13 13 16.5817 13 21C13 25.4183 16.5817 29 21 29C25.4183 29 29 25.4183 29 21C29 16.5817 25.4183 13 21 13Z" fill="#141414"/>
<path d="M41.5928 25.1357L40.6121 24.9399L40.6058 24.9719L40.6015 25.0042L41.5928 25.1357ZM21.1104 55L20.4612 55.7607L21.1103 56.3146L21.7595 55.7607L21.1104 55ZM1.34473 28.4092L2.30268 28.1223L2.29269 28.0889L2.28039 28.0563L1.34473 28.4092ZM21 0V1C32.0457 1 41 9.95431 41 21H42H43C43 8.84974 33.1503 -1 21 -1V0ZM42 21H41C41 22.3495 40.8664 23.6668 40.6121 24.9399L41.5928 25.1357L42.5734 25.3316C42.8533 23.9304 43 22.4818 43 21H42ZM41.5928 25.1357L40.6015 25.0042C39.7161 31.6761 34.7735 38.9496 29.8963 44.656C27.4783 47.4852 25.1154 49.8848 23.3567 51.5773C22.4778 52.4231 21.751 53.0911 21.2453 53.5465C20.9924 53.7742 20.7949 53.9487 20.6613 54.0656C20.5945 54.1241 20.5438 54.1682 20.5101 54.1973C20.4932 54.2119 20.4806 54.2227 20.4724 54.2297C20.4683 54.2332 20.4653 54.2358 20.4635 54.2374C20.4625 54.2382 20.4619 54.2388 20.4615 54.2391C20.4613 54.2392 20.4613 54.2393 20.4612 54.2394C20.4612 54.2394 20.4612 54.2393 21.1104 55C21.7595 55.7607 21.7597 55.7605 21.76 55.7603C21.7602 55.7601 21.7605 55.7598 21.7609 55.7595C21.7617 55.7588 21.7627 55.7579 21.764 55.7568C21.7667 55.7545 21.7704 55.7513 21.7753 55.7471C21.785 55.7388 21.7992 55.7266 21.8176 55.7106C21.8545 55.6788 21.9086 55.6319 21.9787 55.5705C22.1189 55.4477 22.3234 55.267 22.5836 55.0328C23.1039 54.5643 23.8469 53.8812 24.7435 53.0184C26.5356 51.2938 28.9458 48.8463 31.4167 45.9554C36.3174 40.2215 41.616 32.5628 42.5841 25.2673L41.5928 25.1357ZM21.1104 55C21.7595 54.2393 21.7596 54.2394 21.7596 54.2394C21.7595 54.2393 21.7594 54.2393 21.7593 54.2392C21.759 54.2389 21.7584 54.2384 21.7577 54.2378C21.7561 54.2364 21.7536 54.2343 21.7501 54.2313C21.7432 54.2254 21.7325 54.2162 21.7182 54.2038C21.6895 54.1791 21.6463 54.1416 21.5893 54.0918C21.4753 53.9922 21.3062 53.8433 21.089 53.6486C20.6545 53.259 20.0273 52.6863 19.2615 51.9576C17.7292 50.4996 15.6458 48.4207 13.4425 45.939C9.01101 40.9476 4.1935 34.4351 2.30268 28.1223L1.34473 28.4092L0.386773 28.6961C2.40828 35.4453 7.47359 42.2283 11.9469 47.2668C14.1959 49.8 16.3203 51.9197 17.8828 53.4065C18.6644 54.1502 19.3063 54.7364 19.754 55.1378C19.9779 55.3385 20.1533 55.493 20.2734 55.598C20.3335 55.6504 20.3797 55.6905 20.4113 55.7178C20.4271 55.7314 20.4392 55.7418 20.4476 55.749C20.4518 55.7526 20.455 55.7553 20.4573 55.7573C20.4584 55.7583 20.4593 55.759 20.46 55.7596C20.4603 55.7599 20.4606 55.7602 20.4608 55.7603C20.461 55.7605 20.4612 55.7607 21.1104 55ZM1.34473 28.4092L2.28039 28.0563C1.45328 25.8632 1 23.4857 1 21H0H-1C-1 23.7306 -0.501771 26.347 0.409059 28.7621L1.34473 28.4092ZM0 21H1C1 9.95431 9.95431 1 21 1V0V-1C8.84974 -1 -1 8.84974 -1 21H0ZM21 13V12C16.0294 12 12 16.0294 12 21H13H14C14 17.134 17.134 14 21 14V13ZM13 21H12C12 25.9706 16.0294 30 21 30V29V28C17.134 28 14 24.866 14 21H13ZM21 29V30C25.9706 30 30 25.9706 30 21H29H28C28 24.866 24.866 28 21 28V29ZM29 21H30C30 16.0294 25.9706 12 21 12V13V14C24.866 14 28 17.134 28 21H29Z" fill="#D9DBDB" mask="url(#path-1-inside-1_943_4124)"/>
</svg>
