<svg width="42" height="55" viewBox="0 0 42 55" fill="none" xmlns="http://www.w3.org/2000/svg">
<path fill-rule="evenodd" clip-rule="evenodd" d="M42 21C42 9.40202 32.598 0 21 0C9.40202 0 0 9.40202 0 21C0 23.6083 0.475507 26.1054 1.34456 28.4096C5.25689 41.4717 21.1104 55 21.1104 55C21.1104 55 39.7394 39.1032 41.5929 25.1358C41.8599 23.7986 42 22.4157 42 21ZM21 13C25.4183 13 29 16.5817 29 21C29 25.4183 25.4183 29 21 29C16.5817 29 13 25.4183 13 21C13 16.5817 16.5817 13 21 13Z" fill="white"/>
</svg>
