<svg width="48" height="48" viewBox="0 0 48 48" fill="none" xmlns="http://www.w3.org/2000/svg">
<path d="M41.2399 16.9C39.1399 7.66 31.0799 3.5 23.9999 3.5C23.9999 3.5 23.9999 3.5 23.9799 3.5C16.9199 3.5 8.83995 7.64 6.73995 16.88C4.39995 27.2 10.7199 35.94 16.4399 41.44C18.5599 43.48 21.2799 44.5 23.9999 44.5C26.7199 44.5 29.4399 43.48 31.5399 41.44C37.2599 35.94 43.5799 27.22 41.2399 16.9ZM23.9999 26.92C20.5199 26.92 17.6999 24.1 17.6999 20.62C17.6999 17.14 20.5199 14.32 23.9999 14.32C27.4799 14.32 30.2999 17.14 30.2999 20.62C30.2999 24.1 27.4799 26.92 23.9999 26.92Z" fill="#39B352"/>
</svg>
