<svg width="58" height="20" viewBox="0 0 58 20" fill="none" xmlns="http://www.w3.org/2000/svg">
<path d="M50.3356 20C48.9833 20 47.7696 19.6792 46.6947 19.0377C45.637 18.3788 44.7961 17.4946 44.172 16.3849C43.5651 15.2752 43.2617 14.0269 43.2617 12.6398C43.2617 11.2527 43.5738 10.0043 44.198 8.89467C44.8221 7.785 45.663 6.90941 46.7207 6.26788C47.7783 5.62635 48.9746 5.30559 50.3096 5.30559C51.4366 5.30559 52.4335 5.53099 53.3004 5.9818C54.1673 6.4326 54.8522 7.05678 55.355 7.85436L54.9129 8.53056V0H57.8257V19.6879H55.0429V16.827L55.381 17.3732C54.8955 18.2228 54.202 18.873 53.3004 19.3238C52.3989 19.7746 51.4106 20 50.3356 20ZM50.6217 17.2692C51.4366 17.2692 52.1648 17.0698 52.8063 16.671C53.4651 16.2722 53.9766 15.7261 54.3407 15.0325C54.7222 14.3216 54.9129 13.5241 54.9129 12.6398C54.9129 11.7555 54.7222 10.9666 54.3407 10.2731C53.9766 9.57954 53.4651 9.03338 52.8063 8.63459C52.1648 8.2358 51.4366 8.03641 50.6217 8.03641C49.8068 8.03641 49.07 8.2358 48.4111 8.63459C47.7523 9.03338 47.2408 9.57954 46.8767 10.2731C46.5126 10.9666 46.3305 11.7555 46.3305 12.6398C46.3305 13.5241 46.5126 14.3216 46.8767 15.0325C47.2408 15.7261 47.7436 16.2722 48.3851 16.671C49.044 17.0698 49.7895 17.2692 50.6217 17.2692Z" fill="#141414"/>
<path d="M34.4141 19.6888V5.61858H37.2228V8.45343L36.9628 8.0373C37.2748 7.11836 37.7776 6.4595 38.4712 6.06071C39.1647 5.64459 39.9969 5.43652 40.9678 5.43652H41.8261V8.11533H40.6037C39.6328 8.11533 38.8439 8.41875 38.2371 9.0256C37.6476 9.61511 37.3529 10.4647 37.3529 11.5744V19.6888H34.4141Z" fill="#141414"/>
<path d="M24.2091 20.0001C22.8567 20.0001 21.6171 19.6793 20.4901 19.0378C19.3805 18.3963 18.4962 17.5207 17.8374 16.411C17.1785 15.3013 16.8491 14.0443 16.8491 12.6399C16.8491 11.2181 17.1785 9.96106 17.8374 8.86873C18.4962 7.75907 19.3805 6.89214 20.4901 6.26795C21.5997 5.62643 22.8394 5.30566 24.2091 5.30566C25.5962 5.30566 26.8358 5.62643 27.9281 6.26795C29.0377 6.89214 29.9133 7.75907 30.5548 8.86873C31.2137 9.96106 31.5431 11.2181 31.5431 12.6399C31.5431 14.0616 31.2137 15.3273 30.5548 16.437C29.896 17.5467 29.0117 18.4223 27.9021 19.0638C26.7925 19.688 25.5615 20.0001 24.2091 20.0001ZM24.2091 17.2693C25.0413 17.2693 25.7782 17.0699 26.4197 16.6711C27.0612 16.2723 27.564 15.7261 27.9281 15.0326C28.3096 14.3217 28.5003 13.5241 28.5003 12.6399C28.5003 11.7556 28.3096 10.9667 27.9281 10.2732C27.564 9.57961 27.0612 9.03345 26.4197 8.63466C25.7782 8.23588 25.0413 8.03648 24.2091 8.03648C23.3942 8.03648 22.6574 8.23588 21.9985 8.63466C21.357 9.03345 20.8455 9.57961 20.4641 10.2732C20.1 10.9667 19.9179 11.7556 19.9179 12.6399C19.9179 13.5241 20.1 14.3217 20.4641 15.0326C20.8455 15.7261 21.357 16.2723 21.9985 16.6711C22.6574 17.0699 23.3942 17.2693 24.2091 17.2693Z" fill="#141414"/>
<path d="M7.51603 20C6.42374 20 5.4268 19.7746 4.52522 19.3238C3.64098 18.873 2.95613 18.2228 2.47067 17.3732L2.80876 16.827V19.6879H0V0H2.93879V8.53056L2.47067 7.85436C2.99081 7.05678 3.68433 6.4326 4.55123 5.9818C5.41813 5.53099 6.4064 5.30559 7.51603 5.30559C8.85106 5.30559 10.0474 5.62635 11.105 6.26788C12.18 6.90941 13.0209 7.785 13.6277 8.89467C14.2519 10.0043 14.5639 11.2527 14.5639 12.6398C14.5639 14.0269 14.2519 15.2752 13.6277 16.3849C13.0209 17.4946 12.1886 18.3788 11.131 19.0377C10.0734 19.6792 8.8684 20 7.51603 20ZM7.22995 17.2692C8.06218 17.2692 8.79904 17.0698 9.44055 16.671C10.0821 16.2722 10.5849 15.7261 10.949 15.0325C11.3304 14.3216 11.5211 13.5241 11.5211 12.6398C11.5211 11.7555 11.3304 10.9666 10.949 10.2731C10.5849 9.57954 10.0821 9.03338 9.44055 8.63459C8.79904 8.2358 8.06218 8.03641 7.22995 8.03641C6.41507 8.03641 5.6782 8.2358 5.01936 8.63459C4.37785 9.03338 3.86638 9.57954 3.48494 10.2731C3.12084 10.9666 2.93879 11.7555 2.93879 12.6398C2.93879 13.5241 3.12084 14.3216 3.48494 15.0325C3.86638 15.7261 4.37785 16.2722 5.01936 16.671C5.6782 17.0698 6.41507 17.2692 7.22995 17.2692Z" fill="#141414"/>
</svg>
