<svg width="17" height="16" viewBox="0 0 17 16" fill="none" xmlns="http://www.w3.org/2000/svg">
<g clip-path="url(#clip0_1230_8255)">
<path d="M16.0798 0.587602C15.8408 0.345687 15.5434 0.169506 15.2165 0.07608C14.8895 -0.0173459 14.5439 -0.0248582 14.2132 0.054269L3.5465 2.30094C2.93221 2.38518 2.35365 2.63925 1.87596 3.03454C1.39828 3.42983 1.04044 3.95064 0.842745 4.53831C0.645053 5.12598 0.61536 5.75718 0.75701 6.36081C0.89866 6.96445 1.20603 7.51655 1.6445 7.95494L2.78983 9.0996C2.85182 9.16157 2.90098 9.23516 2.9345 9.31615C2.96801 9.39714 2.98523 9.48395 2.98516 9.5716V11.6836C2.98663 11.9806 3.05499 12.2734 3.18516 12.5403L3.17983 12.5449L3.19716 12.5623C3.3925 12.955 3.71155 13.2727 4.10516 13.4663L4.1225 13.4836L4.12716 13.4783C4.39407 13.6084 4.68688 13.6768 4.98383 13.6783H7.09583C7.27253 13.6781 7.44206 13.7481 7.56716 13.8729L8.71183 15.0176C9.01884 15.328 9.38426 15.5746 9.78702 15.7431C10.1898 15.9117 10.6219 15.9988 11.0585 15.9996C11.4223 15.9991 11.7837 15.9397 12.1285 15.8236C12.7108 15.6324 13.2281 15.2823 13.622 14.8127C14.0159 14.3432 14.2708 13.7729 14.3578 13.1663L16.6078 2.47627C16.6911 2.1427 16.6862 1.79322 16.5936 1.46211C16.501 1.13101 16.324 0.829649 16.0798 0.587602ZM3.73383 8.15827L2.58783 7.0136C2.32097 6.75318 2.13394 6.42203 2.04869 6.05904C1.96343 5.69605 1.98348 5.31626 2.1065 4.96427C2.22576 4.60315 2.44623 4.28389 2.74169 4.04444C3.03715 3.805 3.39517 3.65546 3.77316 3.6136L14.3338 1.39027L4.31716 11.4083V9.5716C4.31817 9.30916 4.26714 9.04912 4.16701 8.80653C4.06688 8.56393 3.91965 8.3436 3.73383 8.15827ZM13.0478 12.9383C12.9966 13.3065 12.8438 13.6532 12.6066 13.9394C12.3693 14.2256 12.0569 14.44 11.7046 14.5585C11.3522 14.677 10.9738 14.695 10.6118 14.6104C10.2498 14.5258 9.9185 14.342 9.65516 14.0796L8.5085 12.9329C8.32341 12.7468 8.10326 12.5993 7.86078 12.4988C7.6183 12.3983 7.3583 12.3469 7.09583 12.3476H5.25916L15.2772 2.33294L13.0478 12.9383Z" fill="white"/>
</g>
<defs>
<clipPath id="clip0_1230_8255">
<rect width="16" height="16" fill="white" transform="translate(0.666992)"/>
</clipPath>
</defs>
</svg>
